<svg xmlns="http://www.w3.org/2000/svg" width="27.5" height="27.5" viewBox="0 0 27.5 27.5">
  <metadata><?xpacket begin="﻿" id="W5M0MpCehiHzreSzNTczkc9d"?>
<x:xmpmeta xmlns:x="adobe:ns:meta/" x:xmptk="Adobe XMP Core 5.6-c138 79.159824, 2016/09/14-01:09:01        ">
   <rdf:RDF xmlns:rdf="http://www.w3.org/1999/02/22-rdf-syntax-ns#">
      <rdf:Description rdf:about=""/>
   </rdf:RDF>
</x:xmpmeta>
                                                                                                    
                                                                                                    
                                                                                                    
                                                                                                    
                                                                                                    
                                                                                                    
                                                                                                    
                                                                                                    
                                                                                                    
                                                                                                    
                                                                                                    
                                                                                                    
                                                                                                    
                                                                                                    
                                                                                                    
                                                                                                    
                                                                                                    
                                                                                                    
                                                                                                    
                                                                                                    
                           
<?xpacket end="w"?></metadata>
<defs>
    <style>
      .cls-1 {
        fill: #fff;
        fill-rule: evenodd;
      }
    </style>
  </defs>
  <path id="Composite_Path" data-name="Composite Path" class="cls-1" d="M709.8,397.292a8.3,8.3,0,0,0,3.974,2.445,2.568,2.568,0,0,0,1.085-.693,2.666,2.666,0,0,0,.6-1.305c-0.013-.043-0.03-0.088-0.046-0.133h0a6.282,6.282,0,0,0-3.614-3.244,6.991,6.991,0,0,0-3.834-.64,5.874,5.874,0,0,0,1.831,3.57h0Zm3.558,5.416a8.323,8.323,0,0,0-1.1,4.535,2.569,2.569,0,0,0,.994.817,2.663,2.663,0,0,0,1.428.173c0.043-.031.08-0.06,0.112-0.086a6.286,6.286,0,0,0,1.969-4.439,6.978,6.978,0,0,0-.576-3.844A5.87,5.87,0,0,0,713.357,402.708ZM703.548,399a8.315,8.315,0,0,0,3.554-3.024,2.557,2.557,0,0,0-.324-1.246,2.667,2.667,0,0,0-1.053-.978l-0.141,0a6.281,6.281,0,0,0-4.2,2.435h0a6.975,6.975,0,0,0-1.793,3.449A5.878,5.878,0,0,0,703.548,399Zm-0.3,6.472a8.31,8.31,0,0,0-1.777-4.315,2.578,2.578,0,0,0-1.285-.076h0a2.664,2.664,0,0,0-1.256.7l-0.041.135a6.283,6.283,0,0,0,1.016,4.75,6.947,6.947,0,0,0,2.727,2.77A5.866,5.866,0,0,0,703.243,405.475Zm6.063,2.291a8.314,8.314,0,0,0-4.652.356,2.558,2.558,0,0,0-.471,1.2,2.67,2.67,0,0,0,.278,1.412c0.039,0.028.077,0.054,0.113,0.078a6.287,6.287,0,0,0,4.833.5,6.981,6.981,0,0,0,3.478-1.736A5.868,5.868,0,0,0,709.306,407.766Zm-1.456-17.3a11.981,11.981,0,1,0,11.98,11.981A11.981,11.981,0,0,0,707.85,390.469Zm0-1.769a13.75,13.75,0,1,0,13.75,13.75A13.75,13.75,0,0,0,707.85,388.7Z" transform="translate(-694.094 -388.688)"/>
</svg>
