<?xml version="1.0" encoding="UTF-8"?> <svg xmlns="http://www.w3.org/2000/svg" viewBox="0 0 288.56 360.19"> <defs> <style>.cls-1{fill:#cbcbcb;}.cls-1,.cls-2,.cls-3,.cls-4,.cls-6,.cls-7{fill-rule:evenodd;}.cls-2{fill:#fefefe;}.cls-3,.cls-7{fill:#fff;}.cls-3,.cls-5{stroke:#fa7f32;stroke-width:5.71px;}.cls-3{stroke-miterlimit:10;}.cls-4{fill:#e6e6e6;}.cls-5{fill:none;stroke-linecap:round;stroke-linejoin:round;}.cls-6{fill:#f96f29;}</style> </defs> <title>Ресурс 1</title> <g id="Слой_2" data-name="Слой 2"> <g id="Layer_1" data-name="Layer 1"> <path class="cls-1" d="M144.08,0a65.59,65.59,0,0,1,65.64,65.56c0,1.08,0,2.17-.06,3.22H78.5c-.06-1.06-.09-2.14-.09-3.22A65.6,65.6,0,0,1,144.08,0Z"></path> <path class="cls-2" d="M144.51,36.1c79.56,0,144.05,14.84,144.05,33.13s-64.49,33.13-144.05,33.13S.43,87.53.43,69.24,65,36.1,144.51,36.1Z"></path> <path class="cls-1" d="M144.08,41.3c79.56,0,144.05,14.84,144.05,33.13s-64.49,33.11-144.05,33.11S0,92.72,0,74.43,64.49,41.3,144.08,41.3Z"></path> <path class="cls-3" d="M96.71,76.17,5.06,318.38a21.88,21.88,0,0,0-1.49,6.56c-.4,9.36,63.06,32.39,140.82,32.39,59.89,0,111-13.47,131.42-24.06,3.57-1.88,6.26-3.6,7.78-5.25,2.14-2.4.29-7.71-.89-10.76L191.42,76.17c0-6-21.18-10.9-47.34-10.9s-47.37,4.88-47.37,10.9Z"></path> <path class="cls-4" d="M191,102.34c-14.49,1.34-30.3,2.08-46.88,2.08s-32.42-.74-46.88-2.08L105.26,81c0-.14,0-.26,0-.4,8.55,2.83,22.73,4.68,38.79,4.68s30.25-1.85,38.76-4.68a1.84,1.84,0,0,1,0,.4Z"></path> <path class="cls-5" d="M218.09,298c37.82,5.51,66.07,16.55,66.07,27.65M4,325.63C4,315,26.47,305.54,61.09,299.69"></path> <path class="cls-6" d="M91.05,273.83h96.85a9.74,9.74,0,0,1,9.72,9.7v27.77a9.74,9.74,0,0,1-9.72,9.7H91.05a9.74,9.74,0,0,1-9.72-9.7V283.54a9.74,9.74,0,0,1,9.72-9.7Z"></path> <path class="cls-7" d="M183.5,293.41a4,4,0,1,1-4,4,4,4,0,0,1,4-4Z"></path> <path class="cls-7" d="M97.11,284.25h64.64a2.76,2.76,0,0,1,2.75,2.74h0a2.74,2.74,0,0,1-2.75,2.74H97.11A2.74,2.74,0,0,1,94.37,287h0a2.76,2.76,0,0,1,2.74-2.74Zm0,20.89h64.64a2.74,2.74,0,0,1,2.75,2.71h0a2.74,2.74,0,0,1-2.75,2.74H97.11a2.74,2.74,0,0,1-2.74-2.74h0a2.74,2.74,0,0,1,2.74-2.71Zm0-10.45h64.64a2.74,2.74,0,0,1,2.75,2.74h0a2.76,2.76,0,0,1-2.75,2.74H97.11a2.76,2.76,0,0,1-2.74-2.74h0a2.74,2.74,0,0,1,2.74-2.74Z"></path> <path class="cls-6" d="M92.14,206.14l96.63,6.42a9.77,9.77,0,0,1,9.06,10.33L196,250.6a9.73,9.73,0,0,1-10.32,9L89,253.23a9.73,9.73,0,0,1-9-10.33l1.83-27.71a9.78,9.78,0,0,1,10.35-9Z"></path> <path class="cls-7" d="M183.07,231.82a4,4,0,1,1-4.26,3.74,4,4,0,0,1,4.26-3.74Z"></path> <path class="cls-7" d="M97.48,217,162,221.24a2.77,2.77,0,0,1,2.57,2.91h0a2.74,2.74,0,0,1-2.92,2.54l-64.52-4.28a2.76,2.76,0,0,1-2.54-2.91h0A2.74,2.74,0,0,1,97.48,217Zm-1.4,20.81,64.52,4.31a2.73,2.73,0,0,1,2.54,2.91h0a2.75,2.75,0,0,1-2.92,2.54l-64.49-4.28a2.74,2.74,0,0,1-2.54-2.91h0a2.74,2.74,0,0,1,2.89-2.57Zm.71-10.39,64.49,4.28a2.71,2.71,0,0,1,2.54,2.91h0a2.75,2.75,0,0,1-2.92,2.54l-64.49-4.28a2.74,2.74,0,0,1-2.54-2.91h0a2.71,2.71,0,0,1,2.92-2.54Z"></path> <path class="cls-6" d="M106.86,124.06l91.22,32.51A9.69,9.69,0,0,1,203.94,169l-9.35,26.17A9.73,9.73,0,0,1,182.19,201L91,168.5a9.77,9.77,0,0,1-5.89-12.41l9.38-26.14a9.72,9.72,0,0,1,12.41-5.88Z"></path> <path class="cls-7" d="M187.33,173.52a4,4,0,1,1-5.12,2.43,4,4,0,0,1,5.12-2.43Z"></path> <path class="cls-7" d="M109.06,135.9l60.86,21.69a2.72,2.72,0,0,1,1.66,3.48h0a2.71,2.71,0,0,1-3.49,1.66L107.2,141a2.77,2.77,0,0,1-1.66-3.48h0a2.75,2.75,0,0,1,3.52-1.66Zm-7,19.64,60.89,21.72a2.75,2.75,0,0,1,1.66,3.48h0a2.75,2.75,0,0,1-3.52,1.66l-60.89-21.69a2.79,2.79,0,0,1-1.66-3.51h0a2.8,2.8,0,0,1,3.52-1.66Zm3.52-9.82,60.86,21.69a2.74,2.74,0,0,1,1.66,3.51h0a2.75,2.75,0,0,1-3.49,1.66l-60.89-21.72a2.75,2.75,0,0,1-1.66-3.48h0a2.75,2.75,0,0,1,3.52-1.66Z"></path> </g> </g> </svg> 