<?xml version="1.0" standalone="no"?>
<!DOCTYPE svg PUBLIC "-//W3C//DTD SVG 20010904//EN"
 "http://www.w3.org/TR/2001/REC-SVG-20010904/DTD/svg10.dtd">
<svg version="1.0" xmlns="http://www.w3.org/2000/svg"
 width="260.000000pt" height="260.000000pt" viewBox="0 0 260.000000 260.000000"
 preserveAspectRatio="xMidYMid meet">
<metadata>
Created by potrace 1.11, written by Peter Selinger 2001-2013
</metadata>
<g transform="translate(0.000000,260.000000) scale(0.100000,-0.100000)"
fill="#000000" stroke="none">
<path d="M1175 2349 c-156 -17 -319 -76 -457 -164 -101 -65 -260 -230 -322
-333 -101 -171 -148 -343 -148 -547 0 -292 94 -524 297 -731 186 -190 392
-289 648 -313 581 -55 1092 365 1146 942 32 335 -88 647 -336 877 -219 203
-526 303 -828 269z m353 -169 c158 -45 293 -124 405 -237 170 -172 253 -361
264 -598 11 -261 -80 -497 -266 -680 -187 -185 -416 -273 -676 -262 -139 7
-231 29 -350 87 -238 115 -412 324 -485 582 -27 92 -36 268 -21 367 60 382
365 693 746 761 85 15 300 4 383 -20z"/>
<path d="M1305 1971 c-4 -7 -4 -29 0 -49 22 -119 178 -297 324 -370 46 -23 95
-42 110 -42 40 0 96 44 121 95 26 53 23 72 -21 139 -78 118 -274 219 -450 233
-54 4 -78 2 -84 -6z"/>
<path d="M1023 1951 c-72 -26 -129 -68 -210 -154 -69 -75 -137 -189 -149 -253
-6 -31 -5 -32 38 -38 139 -20 348 72 477 210 69 73 76 105 41 174 -40 78 -98
96 -197 61z"/>
<path d="M1889 1490 c-52 -27 -139 -126 -181 -206 -70 -135 -106 -307 -73
-357 23 -35 92 -67 145 -67 37 0 48 5 80 39 100 105 146 336 104 521 -19 85
-28 94 -75 70z"/>
<path d="M685 1405 c-22 -8 -51 -26 -64 -41 -22 -26 -23 -34 -19 -118 5 -100
28 -171 89 -272 45 -74 128 -165 173 -189 43 -24 47 -20 72 64 45 152 -7 420
-106 539 -24 29 -91 37 -145 17z"/>
<path d="M1151 909 c-30 -5 -66 -15 -80 -22 -53 -25 -77 -120 -47 -191 10 -24
27 -38 67 -57 48 -21 67 -24 179 -23 108 0 136 4 205 27 87 29 182 81 199 110
9 15 5 23 -24 48 -45 39 -120 74 -195 94 -75 20 -233 27 -304 14z"/>
</g>
</svg>
