<?xml version="1.0" encoding="UTF-8"?> <!-- Generator: Adobe Illustrator 16.0.0, SVG Export Plug-In . SVG Version: 6.00 Build 0) --> <svg xmlns="http://www.w3.org/2000/svg" xmlns:xlink="http://www.w3.org/1999/xlink" id="Layer_1" x="0px" y="0px" width="16.467px" height="15.586px" viewBox="0 0 16.467 15.586" xml:space="preserve"> <g> <path fill="none" stroke="#FE965A" stroke-width="0.2283" stroke-miterlimit="10" d="M11.778,5.023 c0.314,0.342,0.314,0.884-0.028,1.227c-0.343,0.314-0.887,0.314-1.201-0.029c-0.343-0.342-0.343-0.884,0-1.198 C10.892,4.681,11.435,4.681,11.778,5.023L11.778,5.023z"></path> <path fill-rule="evenodd" clip-rule="evenodd" fill="#F96F29" d="M7.232,10.417l0.143-0.2L2.801,5.109L1.515,5.052L0,2.626 l0.629-0.599l0.085-0.086l0.601-0.599l2.401,1.541l0.057,1.284l4.574,5.109l0.286-0.314c0.314-0.342,0.857-0.313,1.172,0 l3.717,3.739c0.343,0.342,0.314,0.855,0,1.198l-1.401,1.455c-0.314,0.314-0.857,0.314-1.172-0.028l-3.716-3.738 C6.89,11.273,6.947,10.789,7.232,10.417L7.232,10.417z"></path> <polygon fill-rule="evenodd" clip-rule="evenodd" fill="#FFFFFF" points="11.006,8.562 7.747,13.072 3.659,8.705 8.176,5.822 "></polygon> <path fill-rule="evenodd" clip-rule="evenodd" fill="#FCAA61" d="M16.466,4.224c0.028,1.084-0.372,2.198-1.2,3.054 c-1.401,1.427-3.26,1.912-4.918,0.97c-2.086,2.226-4.145,5.251-5.317,6.45c-1.144,1.17-2.373,0.514-3.059-0.171 c-0.687-0.656-1.43-1.741-0.2-3.025c1.201-1.256,4.345-3.225,6.604-5.365C7.347,4.509,7.69,2.74,9.09,1.313 C10.005,0.4,11.177,0.029,12.378,0c1.086-0.029,0.829,0.885,0.657,1.056l-1.515,1.57c-0.258,0.257-0.229,0.685,0.028,0.942 l1.458,1.427c0.172,0.143,0.4,0.2,0.601,0.171c0.2,0.028,0.399-0.029,0.571-0.171l1.772-1.741 C16.266,3.311,16.466,3.71,16.466,4.224L16.466,4.224z"></path> </g> </svg> 