<?xml version="1.0" encoding="UTF-8"?> <!-- Generator: Adobe Illustrator 16.0.0, SVG Export Plug-In . SVG Version: 6.00 Build 0) --> <svg xmlns="http://www.w3.org/2000/svg" xmlns:xlink="http://www.w3.org/1999/xlink" id="Layer_1" x="0px" y="0px" width="19.027px" height="15.398px" viewBox="0 0 19.027 15.398" xml:space="preserve"> <g> <path fill-rule="evenodd" clip-rule="evenodd" fill="#FCAA61" stroke="#FFFFFF" stroke-width="0.1998" stroke-linecap="round" stroke-linejoin="round" stroke-miterlimit="10" d=" M18.688,5.441l-2.658-5.023c-0.2-0.399-0.429-0.428-0.629-0.057l-2.659,4.995c-0.257,0.542-0.657,1.027,0.572,1.027h5.003 C19.002,6.383,19.088,6.211,18.688,5.441L18.688,5.441z"></path> <path fill-rule="evenodd" clip-rule="evenodd" fill="#FCAA61" stroke="#FFFFFF" stroke-width="0.1998" stroke-linecap="round" stroke-linejoin="round" stroke-miterlimit="10" d=" M18.545,8.038l-2.688,5.052c-0.2,0.371-0.429,0.399-0.601,0.057l-2.658-5.023c-0.286-0.514-0.687-1.027,0.543-1.027h5.003 C18.859,7.096,18.945,7.296,18.545,8.038L18.545,8.038z"></path> <path fill-rule="evenodd" clip-rule="evenodd" fill="#FCAA61" stroke="#FFFFFF" stroke-width="0.1998" stroke-linecap="round" stroke-linejoin="round" stroke-miterlimit="10" d=" M3.593,5.498l2.659-5.051c0.229-0.4,0.458-0.4,0.629-0.057L9.54,5.413c0.286,0.514,0.686,0.999-0.543,0.999H3.994 C3.279,6.411,3.193,6.24,3.593,5.498L3.593,5.498z"></path> <path fill-rule="evenodd" clip-rule="evenodd" fill="#F96F29" d="M0.277,9.266l3.059,5.793c0.229,0.429,0.486,0.457,0.715,0.058 l3.03-5.736c0.343-0.6,0.772-1.17-0.629-1.17H0.706C-0.094,8.209-0.18,8.409,0.277,9.266L0.277,9.266z"></path> <path fill-rule="evenodd" clip-rule="evenodd" fill="#FCAA61" stroke="#FFFFFF" stroke-width="0.1998" stroke-linecap="round" stroke-linejoin="round" stroke-miterlimit="10" d=" M14.057,12.434l-2.659-5.052c-0.2-0.4-0.429-0.428-0.629-0.057L8.11,12.348c-0.257,0.514-0.658,0.999,0.572,0.999h5.002 C14.371,13.347,14.457,13.175,14.057,12.434L14.057,12.434z"></path> <path fill-rule="evenodd" clip-rule="evenodd" fill="#FCAA61" stroke="#FFFFFF" stroke-width="0.1998" stroke-linecap="round" stroke-linejoin="round" stroke-miterlimit="10" d=" M14.057,1.018l-2.688,5.051c-0.2,0.399-0.429,0.428-0.601,0.057L8.11,1.132C7.824,0.589,7.424,0.104,8.653,0.104h5.003 C14.371,0.104,14.457,0.275,14.057,1.018L14.057,1.018z"></path> </g> </svg> 