<?xml version="1.0" encoding="UTF-8"?> <!-- Generator: Adobe Illustrator 16.0.0, SVG Export Plug-In . SVG Version: 6.00 Build 0) --> <svg xmlns="http://www.w3.org/2000/svg" xmlns:xlink="http://www.w3.org/1999/xlink" id="Layer_1" x="0px" y="0px" width="15.656px" height="15.579px" viewBox="0.811 0 15.656 15.579" xml:space="preserve"> <g> <path fill-rule="evenodd" clip-rule="evenodd" fill="#FCAA61" d="M7.578,2.069c3.746,0,6.767,3.041,6.767,6.755 c0,3.739-3.021,6.755-6.767,6.755c-3.721,0-6.767-3.016-6.767-6.755C0.811,5.11,3.857,2.069,7.578,2.069L7.578,2.069z"></path> <path fill-rule="evenodd" clip-rule="evenodd" fill="#F96F29" d="M14.444,0c1.123,0,2.022,0.897,2.022,2.019 s-0.899,2.019-2.022,2.019c-1.124,0-2.023-0.897-2.023-2.019S13.32,0,14.444,0L14.444,0z"></path> <path fill-rule="evenodd" clip-rule="evenodd" fill="#FFFFFF" d="M10.35,3.864c1.123,0,2.021,0.896,2.021,2.019 c0,1.122-0.898,2.019-2.021,2.019c-1.124,0-2.023-0.897-2.023-2.019C8.326,4.761,9.226,3.864,10.35,3.864L10.35,3.864z"></path> <path fill="#FFFFFF" d="M3.158,12.239V8.102h0.549v3.64h2.048v0.498H3.158z M8.302,12.239V11.79 c-0.225,0.35-0.549,0.524-0.949,0.524c-0.175,0-0.35-0.05-0.5-0.124c-0.15-0.051-0.274-0.15-0.35-0.25 c-0.075-0.101-0.125-0.225-0.15-0.374c-0.025-0.101-0.025-0.249-0.025-0.474V9.248h0.499v1.646c0,0.273,0.025,0.448,0.05,0.548 c0.025,0.125,0.101,0.225,0.2,0.3c0.1,0.074,0.225,0.125,0.375,0.125c0.15,0,0.3-0.051,0.424-0.125c0.15-0.075,0.225-0.175,0.3-0.3 c0.05-0.148,0.075-0.349,0.075-0.598V9.248h0.499v2.991H8.302z M11.522,11.866c-0.199,0.148-0.375,0.273-0.549,0.349 c-0.175,0.05-0.35,0.1-0.549,0.1c-0.35,0-0.601-0.1-0.774-0.25c-0.176-0.174-0.275-0.374-0.275-0.623 c0-0.148,0.051-0.274,0.125-0.398c0.051-0.125,0.15-0.225,0.249-0.299c0.1-0.075,0.227-0.125,0.375-0.149 c0.1-0.025,0.25-0.075,0.45-0.075c0.399-0.051,0.698-0.125,0.898-0.199c0-0.05,0-0.1,0-0.125c0-0.199-0.05-0.35-0.124-0.424 c-0.15-0.124-0.325-0.174-0.6-0.174c-0.225,0-0.399,0.025-0.525,0.124C10.1,9.796,10.024,9.947,9.976,10.17l-0.501-0.074 C9.526,9.872,9.601,9.696,9.7,9.572c0.1-0.125,0.249-0.225,0.449-0.3c0.2-0.074,0.425-0.099,0.674-0.099 c0.275,0,0.475,0.024,0.625,0.074c0.174,0.075,0.274,0.15,0.35,0.249c0.074,0.075,0.148,0.199,0.174,0.324 c0,0.1,0.025,0.249,0.025,0.475v0.673c0,0.473,0,0.772,0.025,0.897c0.024,0.124,0.075,0.248,0.124,0.373h-0.524 C11.572,12.14,11.522,12.015,11.522,11.866L11.522,11.866z M11.473,10.719c-0.175,0.074-0.449,0.15-0.823,0.199 c-0.2,0.025-0.35,0.075-0.45,0.1c-0.075,0.051-0.15,0.1-0.199,0.175c-0.051,0.075-0.075,0.149-0.075,0.249 c0,0.125,0.051,0.249,0.15,0.324c0.099,0.101,0.274,0.149,0.449,0.149c0.199,0,0.374-0.049,0.523-0.149 c0.175-0.075,0.275-0.199,0.35-0.349c0.051-0.1,0.075-0.275,0.075-0.499V10.719z"></path> </g> </svg> 