<?xml version="1.0" encoding="UTF-8"?> <!-- Generator: Adobe Illustrator 16.0.0, SVG Export Plug-In . SVG Version: 6.00 Build 0) --> <svg xmlns="http://www.w3.org/2000/svg" xmlns:xlink="http://www.w3.org/1999/xlink" id="Layer_1" x="0px" y="0px" width="15.752px" height="17.409px" viewBox="0 0 15.752 17.409" xml:space="preserve"> <g> <path fill-rule="evenodd" clip-rule="evenodd" fill="#F96F29" d="M15.752,7.135v9.646c0,0.343-0.258,0.628-0.601,0.628H0.629 C0.286,17.409,0,17.124,0,16.781V7.135c0-0.342,0.286-0.628,0.629-0.628h14.522C15.494,6.507,15.752,6.792,15.752,7.135 L15.752,7.135z"></path> <path fill-rule="evenodd" clip-rule="evenodd" fill="#FFFFFF" d="M14.352,15.497V8.391c0-0.371-0.344-0.685-0.715-0.685H3.488 c-0.4,0-0.714,0.314-0.714,0.685v7.106c0,0.399,0.314,0.713,0.714,0.713h10.149C14.008,16.21,14.352,15.896,14.352,15.497 L14.352,15.497z"></path> <path fill-rule="evenodd" clip-rule="evenodd" fill="#FEB184" d="M1.401,11.559c0.458,0,0.829,0.343,0.829,0.799 c0,0.428-0.372,0.799-0.829,0.799c-0.429,0-0.8-0.371-0.8-0.799C0.601,11.901,0.972,11.559,1.401,11.559L1.401,11.559z"></path> <rect x="4.374" fill-rule="evenodd" clip-rule="evenodd" fill="#FFFFFF" width="9.978" height="13.585"></rect> <path fill-rule="evenodd" clip-rule="evenodd" fill="#FCAA61" d="M6.175,1.056h6.346c0.486,0,0.887,0.399,0.887,0.884v12.387 c0,0.484-0.4,0.885-0.887,0.885H6.175c-0.486,0-0.886-0.4-0.886-0.885V1.94C5.289,1.456,5.689,1.056,6.175,1.056L6.175,1.056z"></path> <path fill-rule="evenodd" clip-rule="evenodd" fill="#FFFFFF" d="M7.062,3.482h4.574c0.429,0,0.743,0.342,0.743,0.742v7.192 c0,0.428-0.314,0.771-0.743,0.771H7.062c-0.4,0-0.744-0.343-0.744-0.771V4.224C6.318,3.824,6.661,3.482,7.062,3.482L7.062,3.482z"></path> <path fill-rule="evenodd" clip-rule="evenodd" fill="#FED7C3" d="M8.291,1.94h1.916c0.086,0,0.172,0.114,0.172,0.229l0,0 c0,0.143-0.086,0.257-0.172,0.257H8.291c-0.114,0-0.2-0.114-0.2-0.257l0,0C8.09,2.055,8.176,1.94,8.291,1.94L8.291,1.94z"></path> <path fill-rule="evenodd" clip-rule="evenodd" fill="#FED7C3" d="M9.349,13.128c0.457,0,0.829,0.371,0.829,0.828 c0,0.456-0.372,0.827-0.829,0.827c-0.458,0-0.829-0.371-0.829-0.827C8.52,13.499,8.891,13.128,9.349,13.128L9.349,13.128z"></path> </g> </svg> 