<?xml version="1.0" encoding="UTF-8"?> <!-- Generator: Adobe Illustrator 16.0.0, SVG Export Plug-In . SVG Version: 6.00 Build 0) --> <svg xmlns="http://www.w3.org/2000/svg" xmlns:xlink="http://www.w3.org/1999/xlink" id="Layer_1" x="0px" y="0px" width="17.348px" height="14.494px" viewBox="0 0 17.348 14.494" xml:space="preserve"> <g> <path fill="#F96F29" d="M0.195,5.162c0.114-0.2,0.343-0.286,0.543-0.171c0.229,0.086,0.286,0.343,0.2,0.542 c-0.2,0.342-0.114,0.685,0.057,0.942c0.114,0.114,0.229,0.2,0.372,0.257C1.51,6.788,1.682,6.817,1.825,6.788 C1.968,6.76,2.11,6.731,2.253,6.646c0.458-2.997,3.402-5.28,7.004-5.28c0.686,0,1.372,0.086,2.001,0.257l2.115-1.37 c0.687-0.428,0.915-0.343,0.801,0.485l-0.229,2.141c0.972,0.771,1.715,1.741,2.086,2.882h0.772c0.286,0,0.543,0.229,0.543,0.542 v2.283c0,0.314-0.257,0.571-0.543,0.571h-0.801c-0.457,1.341-1.458,2.482-2.772,3.253v1.484c0,0.314-0.258,0.6-0.601,0.6h-2.03 c-0.314,0-0.571-0.285-0.571-0.6v-0.485c-0.257,0.029-0.515,0.058-0.771,0.058c-0.4,0-0.772-0.028-1.144-0.086v0.514 c0,0.314-0.257,0.6-0.572,0.6H5.513c-0.343,0-0.601-0.285-0.601-0.6v-1.712c-1.601-1.085-2.659-2.74-2.716-4.624 c-0.086,0-0.171,0.028-0.257,0.028c-0.314,0.057-0.6,0-0.886-0.114C0.795,7.388,0.538,7.188,0.367,6.988 C-0.005,6.503-0.148,5.818,0.195,5.162L0.195,5.162z"></path> <path fill-rule="evenodd" clip-rule="evenodd" fill="#FFFFFF" d="M14.031,4.619c-0.314,0-0.571,0.257-0.571,0.571 c0,0.343,0.257,0.6,0.571,0.6s0.601-0.257,0.601-0.6C14.632,4.876,14.346,4.619,14.031,4.619L14.031,4.619z"></path> <path fill="none" stroke="#FFFFFF" stroke-width="0.7135" stroke-linecap="round" stroke-linejoin="round" stroke-miterlimit="10" d=" M6.542,3.192c0.858-0.257,1.772-0.399,2.716-0.428c0.914-0.028,1.801,0.086,2.63,0.286"></path> </g> </svg> 