<?xml version="1.0" encoding="UTF-8"?> <svg xmlns="http://www.w3.org/2000/svg" id="top_logo" data-name="top logo" width="228.125" height="72" viewBox="0 0 228.125 72"> <metadata> <?xpacket begin="﻿" id="W5M0MpCehiHzreSzNTczkc9d"?> <?xpacket end="w"?> </metadata> <defs> <style> .cls-1 { fill: #fff; fill-rule: evenodd; } </style> </defs> <path id="Composite_Path" data-name="Composite Path" class="cls-1" d="M41.952,23.4c3.026,3.177,6.989,5.708,10.416,6.4a6.734,6.734,0,0,0,2.844-1.814A6.989,6.989,0,0,0,56.8,24.566c-0.036-.113-0.08-0.229-0.123-0.347h0c-1.47-3.953-5.411-6.795-9.473-8.494-4-1.671-8.084-2.237-10.05-1.675,0.07,3.032,2.042,6.452,4.8,9.347h0Zm9.327,14.179C49.188,41.432,48,45.977,48.4,49.45a6.743,6.743,0,0,0,2.606,2.139,7.015,7.015,0,0,0,3.742.453c0.114-.082.211-0.158,0.3-0.225,3.308-2.617,4.8-7.24,5.16-11.624,0.357-4.314-.366-8.371-1.51-10.063C55.827,31.132,53.181,34.064,51.279,37.575Zm-25.713-9.7c3.961-1.892,7.595-4.874,9.316-7.916a6.7,6.7,0,0,0-.849-3.263,7,7,0,0,0-2.76-2.56l-0.369.006c-4.218.174-8.142,3.039-11.016,6.376h0c-2.825,3.277-4.629,6.987-4.7,9.028C18.094,30.415,21.96,29.6,25.565,27.874Zm-0.8,16.945c-0.578-4.348-2.294-8.721-4.658-11.3a6.741,6.741,0,0,0-3.368-.2h0a6.984,6.984,0,0,0-3.291,1.83l-0.108.353C12.2,39.572,13.717,44.186,16,47.944c2.247,3.7,5.223,6.555,7.147,7.253C24.879,52.7,25.3,48.779,24.767,44.819Zm15.891,6c-4.318-.793-9.012-0.517-12.194.933a6.7,6.7,0,0,0-1.234,3.139,6.985,6.985,0,0,0,.728,3.7c0.1,0.074.2,0.142,0.3,0.205,3.516,2.338,8.379,2.323,12.669,1.315,4.216-.995,7.857-2.935,9.116-4.546C48.2,53.149,44.592,51.539,40.658,50.818ZM36.841,5.532A31.367,31.367,0,1,0,68.245,36.9,31.386,31.386,0,0,0,36.841,5.532Zm0-4.632a36,36,0,1,0,36.044,36A36.021,36.021,0,0,0,36.841.9Z" transform="translate(-0.813 -0.906)"></path> <path id="Composite_Path-2" data-name="Composite Path" class="cls-1" d="M209.306,34.571l-0.565-4.046a63.24,63.24,0,0,1,11.54-1.129q4.475,0,6.57,1.787t2.1,6.258V53.107h-4.522l-0.612-3.528a11.4,11.4,0,0,1-8.808,4.045,7.744,7.744,0,0,1-5.275-1.763,6.176,6.176,0,0,1-2.026-4.917V44.591a5.283,5.283,0,0,1,1.79-4.281,7.609,7.609,0,0,1,5.04-1.506H223.2V37.393a3.326,3.326,0,0,0-.895-2.634,5.86,5.86,0,0,0-3.345-.659q-3.625,0-9.655.471h0ZM213.4,45.3v0.893q0,2.823,3.014,2.823a10.693,10.693,0,0,0,6.783-2.729V42.709h-7.348a2.476,2.476,0,0,0-1.908.706A2.892,2.892,0,0,0,213.4,45.3Z" transform="translate(-0.813 -0.906)"></path> <path id="Path" class="cls-1" d="M186.706,30.054l0.376,3.388q5.372-4.046,9.985-4.046a6.377,6.377,0,0,1,4.711,1.646,6.431,6.431,0,0,1,1.648,4.751V53.107H197.68V37.535a4.61,4.61,0,0,0-.518-2.612,2.3,2.3,0,0,0-1.931-.682,8.893,8.893,0,0,0-3.273.659,35.334,35.334,0,0,0-4.311,2.164V53.107H181.9V30.054h4.8Z" transform="translate(-0.813 -0.906)"></path> <path id="Composite_Path-3" data-name="Composite Path" class="cls-1" d="M166.413,29.4q6.219,0,8.785,2.775t2.567,9.41q0,6.634-2.567,9.386t-8.785,2.752q-6.264,0-8.855-2.752t-2.59-9.386q0-6.633,2.59-9.41t8.855-2.775h0Zm0,4.563q-3.2,0-4.333,1.577t-1.131,6.045q0,4.422,1.131,6t4.333,1.576q3.108,0,4.263-1.576t1.154-6q0-4.47-1.154-6.045T166.413,33.959Z" transform="translate(-0.813 -0.906)"></path> <path id="Path-2" data-name="Path" class="cls-1" d="M153.468,29.4l-0.611,5.364h-1.648q-2.45,0-7.632,2.069V53.107h-5.745V30.054h4.474l0.518,3.388q4.947-4.046,9.514-4.046h1.13Z" transform="translate(-0.813 -0.906)"></path> <path id="Composite_Path-4" data-name="Composite Path" class="cls-1" d="M121.92,29.4q6.217,0,8.784,2.775t2.567,9.41q0,6.634-2.567,9.386t-8.784,2.752q-6.264,0-8.855-2.752t-2.591-9.386q0-6.633,2.591-9.41T121.92,29.4h0Zm0,4.563q-3.2,0-4.333,1.577t-1.131,6.045q0,4.422,1.131,6t4.333,1.576q3.108,0,4.263-1.576t1.153-6q0-4.47-1.153-6.045T121.92,33.959Z" transform="translate(-0.813 -0.906)"></path> <path id="Path-3" data-name="Path" class="cls-1" d="M107.3,48.026l0.519,4.422a34.1,34.1,0,0,1-9.986,1.224q-7.3,0-10.268-3.764T84.6,36.876q0-9.268,2.968-13.032T97.837,20.08a36.779,36.779,0,0,1,9.326,1.035l-0.565,4.47q-4.1-.33-8.76-0.33-4.051,0-5.535,2.47t-1.483,9.151q0,6.68,1.483,9.15t5.535,2.47a74.428,74.428,0,0,0,9.466-.471h0Z" transform="translate(-0.813 -0.906)"></path> </svg> 