<?xml version="1.0" encoding="UTF-8"?> <svg xmlns="http://www.w3.org/2000/svg" id="top_logo" data-name="top logo" width="384.594" height="102" viewBox="0 0 384.594 102"> <metadata> <?xpacket begin="﻿" id="W5M0MpCehiHzreSzNTczkc9d"?> <?xpacket end="w"?> </metadata> <defs> <style> .cls-1 { fill: #f96f29; } .cls-1, .cls-2 { fill-rule: evenodd; } .cls-2 { fill: #fff; } </style> </defs> <path id="Path" class="cls-1" d="M384.6-22H-402.8l-70.8,124H313.6Z"></path> <path id="Composite_Path" data-name="Composite Path" class="cls-2" d="M86.952,37.4c3.025,3.177,6.988,5.708,10.416,6.4a6.73,6.73,0,0,0,2.843-1.814,6.99,6.99,0,0,0,1.586-3.418c-0.036-.113-0.08-0.229-0.123-0.347h0c-1.47-3.953-5.411-6.795-9.473-8.494-4-1.671-8.084-2.237-10.05-1.675,0.07,3.032,2.042,6.452,4.8,9.347h0Zm9.327,14.179C94.188,55.432,93,59.977,93.4,63.45a6.743,6.743,0,0,0,2.606,2.139,7.015,7.015,0,0,0,3.742.453c0.114-.082.211-0.158,0.3-0.225,3.308-2.617,4.8-7.24,5.16-11.624,0.357-4.314-.366-8.371-1.51-10.063C100.827,45.132,98.181,48.064,96.279,51.575Zm-25.713-9.7c3.961-1.892,7.595-4.874,9.316-7.916a6.7,6.7,0,0,0-.849-3.263,7,7,0,0,0-2.76-2.56l-0.37.006c-4.217.174-8.142,3.039-11.016,6.376h0c-2.825,3.277-4.629,6.987-4.7,9.028C63.094,44.415,66.96,43.6,70.565,41.874Zm-0.8,16.945c-0.578-4.348-2.294-8.721-4.659-11.3a6.741,6.741,0,0,0-3.368-.2h0a6.984,6.984,0,0,0-3.291,1.83l-0.108.353C57.2,53.572,58.717,58.186,61,61.944c2.247,3.7,5.223,6.555,7.147,7.253C69.879,66.7,70.3,62.779,69.767,58.819Zm15.891,6c-4.318-.793-9.012-0.516-12.194.933a6.7,6.7,0,0,0-1.234,3.139,6.985,6.985,0,0,0,.728,3.7c0.1,0.074.2,0.142,0.3,0.205,3.516,2.338,8.379,2.323,12.669,1.315,4.216-.995,7.857-2.936,9.116-4.546C93.2,67.149,89.592,65.539,85.658,64.818ZM81.841,19.532a31.367,31.367,0,1,0,31.4,31.368A31.386,31.386,0,0,0,81.841,19.532Zm0-4.632a36,36,0,1,0,36.044,36A36.021,36.021,0,0,0,81.841,14.9Z"></path> <path id="Composite_Path-2" data-name="Composite Path" class="cls-2" d="M254.306,48.571l-0.565-4.046a63.24,63.24,0,0,1,11.54-1.129q4.474,0,6.57,1.788t2.1,6.258V67.107h-4.522l-0.612-3.528a11.4,11.4,0,0,1-8.808,4.045,7.744,7.744,0,0,1-5.275-1.763,6.176,6.176,0,0,1-2.026-4.917V58.591a5.283,5.283,0,0,1,1.79-4.281,7.609,7.609,0,0,1,5.04-1.506H268.2V51.393a3.326,3.326,0,0,0-.9-2.634,5.86,5.86,0,0,0-3.345-.659q-3.626,0-9.655.471h0ZM258.4,59.3v0.893q0,2.823,3.014,2.823a10.693,10.693,0,0,0,6.783-2.729V56.709h-7.348a2.476,2.476,0,0,0-1.908.706A2.892,2.892,0,0,0,258.4,59.3Z"></path> <path id="Path-2" data-name="Path" class="cls-2" d="M231.706,44.054l0.376,3.388q5.372-4.046,9.985-4.046a5.754,5.754,0,0,1,6.359,6.4V67.107H242.68V51.535a4.61,4.61,0,0,0-.518-2.612,2.3,2.3,0,0,0-1.931-.682,8.893,8.893,0,0,0-3.273.659,35.334,35.334,0,0,0-4.311,2.164V67.107H226.9V44.054h4.8Z"></path> <path id="Composite_Path-3" data-name="Composite Path" class="cls-2" d="M211.413,43.4q6.219,0,8.785,2.775t2.567,9.41q0,6.634-2.567,9.386t-8.785,2.752q-6.264,0-8.855-2.752t-2.59-9.386q0-6.633,2.59-9.41t8.855-2.775h0Zm0,4.563q-3.2,0-4.333,1.577t-1.131,6.045q0,4.422,1.131,6t4.333,1.576q3.108,0,4.263-1.576t1.154-6q0-4.47-1.154-6.045T211.413,47.959Z"></path> <path id="Path-3" data-name="Path" class="cls-2" d="M198.468,43.4l-0.611,5.364h-1.648q-2.45,0-7.632,2.069V67.107h-5.745V44.054h4.474l0.518,3.388q4.947-4.046,9.514-4.046h1.13Z"></path> <path id="Composite_Path-4" data-name="Composite Path" class="cls-2" d="M166.92,43.4q6.218,0,8.784,2.775t2.567,9.41q0,6.634-2.567,9.386t-8.784,2.752q-6.264,0-8.855-2.752t-2.591-9.386q0-6.633,2.591-9.41T166.92,43.4h0Zm0,4.563q-3.2,0-4.333,1.577t-1.131,6.045q0,4.422,1.131,6t4.333,1.576q3.108,0,4.263-1.576t1.153-6q0-4.47-1.153-6.045T166.92,47.959Z"></path> <path id="Path-4" data-name="Path" class="cls-2" d="M152.3,62.026l0.519,4.422a34.1,34.1,0,0,1-9.986,1.224q-7.3,0-10.268-3.764T129.6,50.876q0-9.268,2.968-13.032t10.268-3.764a36.78,36.78,0,0,1,9.326,1.035l-0.565,4.47q-4.1-.33-8.761-0.33-4.05,0-5.535,2.47t-1.483,9.151q0,6.68,1.483,9.15t5.535,2.47a74.431,74.431,0,0,0,9.467-.471h0Z"></path> </svg> 